<svg xmlns="http://www.w3.org/2000/svg" viewBox="0 0 1200 675">
  <defs>
    <linearGradient id="bg" x1="0" y1="0" x2="0" y2="1">
      <stop offset="0%" stop-color="#03010f"/>
      <stop offset="60%" stop-color="#09022a"/>
      <stop offset="100%" stop-color="#110340"/>
    </linearGradient>
    <radialGradient id="mh" cx="50%" cy="50%" r="50%">
      <stop offset="15%" stop-color="#fff8d0" stop-opacity="0.35"/>
      <stop offset="100%" stop-color="#fff8d0" stop-opacity="0"/>
    </radialGradient>
    <linearGradient id="tp" x1="0" y1="0" x2="0" y2="1">
      <stop offset="0%" stop-color="#070126"/>
      <stop offset="100%" stop-color="#0a0232"/>
    </linearGradient>
  </defs>

  <!-- Night sky -->
  <rect width="1200" height="455" fill="url(#bg)"/>

  <!-- Stars -->
  <circle cx="42" cy="28" r="1.6" fill="white" opacity="0.9"/>
  <circle cx="130" cy="52" r="1.8" fill="white" opacity="0.85"/>
  <circle cx="85" cy="115" r="0.9" fill="white" opacity="0.7"/>
  <circle cx="210" cy="38" r="1.2" fill="#dde8ff" opacity="0.85"/>
  <circle cx="298" cy="72" r="2.1" fill="white" opacity="0.9"/>
  <circle cx="172" cy="148" r="0.9" fill="white" opacity="0.62"/>
  <circle cx="52" cy="195" r="1.4" fill="white" opacity="0.75"/>
  <circle cx="338" cy="126" r="0.8" fill="white" opacity="0.6"/>
  <circle cx="258" cy="182" r="1.3" fill="#d8d0ff" opacity="0.78"/>
  <circle cx="425" cy="22" r="1.7" fill="white" opacity="0.88"/>
  <circle cx="512" cy="58" r="1.2" fill="white" opacity="0.9"/>
  <circle cx="478" cy="125" r="0.9" fill="white" opacity="0.68"/>
  <circle cx="560" cy="92" r="1.3" fill="#fff8c8" opacity="0.82"/>
  <circle cx="622" cy="40" r="1.8" fill="white" opacity="0.78"/>
  <circle cx="592" cy="165" r="0.8" fill="white" opacity="0.58"/>
  <circle cx="402" cy="198" r="1.1" fill="white" opacity="0.7"/>
  <circle cx="540" cy="220" r="0.8" fill="white" opacity="0.52"/>
  <circle cx="682" cy="40" r="1.1" fill="white" opacity="0.8"/>
  <circle cx="742" cy="80" r="0.8" fill="white" opacity="0.7"/>
  <circle cx="805" cy="46" r="1.5" fill="white" opacity="0.85"/>
  <circle cx="762" cy="136" r="0.8" fill="white" opacity="0.58"/>
  <circle cx="1005" cy="30" r="1.2" fill="white" opacity="0.75"/>
  <circle cx="1065" cy="70" r="1.7" fill="white" opacity="0.85"/>
  <circle cx="1145" cy="40" r="0.9" fill="white" opacity="0.7"/>
  <circle cx="1095" cy="135" r="1.3" fill="#e8ccff" opacity="0.82"/>
  <circle cx="1175" cy="105" r="0.9" fill="white" opacity="0.65"/>
  <circle cx="100" cy="285" r="0.8" fill="white" opacity="0.52"/>
  <circle cx="350" cy="260" r="1.1" fill="white" opacity="0.65"/>
  <circle cx="618" cy="280" r="0.8" fill="white" opacity="0.52"/>
  <circle cx="752" cy="295" r="1.1" fill="white" opacity="0.6"/>
  <circle cx="1025" cy="265" r="0.8" fill="white" opacity="0.58"/>
  <circle cx="1165" cy="285" r="1.1" fill="white" opacity="0.65"/>
  <circle cx="198" cy="340" r="0.8" fill="white" opacity="0.48"/>
  <circle cx="482" cy="325" r="0.8" fill="white" opacity="0.5"/>
  <circle cx="872" cy="315" r="0.8" fill="white" opacity="0.48"/>
  <circle cx="162" cy="70" r="0.7" fill="white" opacity="0.48"/>
  <circle cx="382" cy="150" r="0.7" fill="white" opacity="0.52"/>
  <circle cx="668" cy="196" r="0.7" fill="white" opacity="0.48"/>
  <circle cx="1032" cy="180" r="0.7" fill="white" opacity="0.55"/>
  <circle cx="438" cy="285" r="0.7" fill="white" opacity="0.45"/>
  <circle cx="878" cy="252" r="0.7" fill="white" opacity="0.45"/>
  <circle cx="318" cy="308" r="0.7" fill="white" opacity="0.42"/>
  <circle cx="720" cy="250" r="0.7" fill="white" opacity="0.45"/>
  <circle cx="942" cy="290" r="0.7" fill="white" opacity="0.42"/>
  <circle cx="165" cy="248" r="0.8" fill="white" opacity="0.45"/>
  <circle cx="508" cy="170" r="0.8" fill="white" opacity="0.5"/>
  <circle cx="840" cy="192" r="0.8" fill="white" opacity="0.48"/>
  <circle cx="1108" cy="212" r="0.8" fill="white" opacity="0.5"/>

  <!-- Milky Way haze (very faint band) -->
  <ellipse cx="500" cy="190" rx="640" ry="80" fill="white" opacity="0.018" transform="rotate(-22 500 190)"/>

  <!-- Moon halo -->
  <circle cx="960" cy="108" r="85" fill="url(#mh)"/>
  <!-- Moon body -->
  <circle cx="960" cy="108" r="42" fill="#fffde7"/>
  <circle cx="968" cy="100" r="33" fill="#fff9c4"/>
  <!-- Craters -->
  <circle cx="950" cy="102" r="5.5" fill="#ffe88a" opacity="0.38"/>
  <circle cx="974" cy="120" r="3.5" fill="#ffe88a" opacity="0.28"/>
  <circle cx="942" cy="120" r="4.5" fill="#ffecb3" opacity="0.25"/>
  <circle cx="985" cy="95" r="3" fill="#ffe88a" opacity="0.32"/>

  <!-- Telescope + tripod -->
  <g transform="translate(1062, 335)">
    <g transform="rotate(-38)">
      <rect x="-11" y="-108" width="22" height="80" rx="9" fill="#0c0638"/>
      <rect x="-9" y="-108" width="18" height="22" rx="6" fill="#09022e"/>
      <rect x="-13" y="-32" width="26" height="13" rx="5" fill="#09022e"/>
      <rect x="12" y="-88" width="7" height="35" rx="3" fill="#09022e"/>
      <circle cx="14" cy="-52" r="5" fill="#09022e"/>
      <rect x="-14" y="0" width="28" height="12" rx="4" fill="#0c0638"/>
    </g>
    <line x1="0" y1="12" x2="-38" y2="108" stroke="#07021c" stroke-width="5" stroke-linecap="round"/>
    <line x1="0" y1="12" x2="42" y2="108" stroke="#07021c" stroke-width="5" stroke-linecap="round"/>
    <line x1="0" y1="12" x2="0" y2="108" stroke="#07021c" stroke-width="4" stroke-linecap="round"/>
    <line x1="-20" y1="66" x2="23" y2="66" stroke="#07021c" stroke-width="3"/>
  </g>

  <!-- Hill silhouettes -->
  <path d="M0,375 Q88,305 175,348 Q255,280 362,330 Q455,272 555,308 Q648,284 755,315 Q862,277 965,302 Q1055,288 1148,308 Q1178,302 1200,310 L1200,456 L0,456 Z" fill="#080020" opacity="0.7"/>
  <path d="M0,412 Q115,352 218,382 Q325,338 435,370 Q552,328 672,360 Q795,334 895,356 Q1008,340 1098,358 Q1158,349 1200,356 L1200,456 L0,456 Z" fill="#040012"/>

  <!-- Text panel -->
  <rect x="0" y="455" width="1200" height="220" fill="url(#tp)"/>
  <rect x="0" y="455" width="1200" height="3" fill="#9d4edd"/>
  <rect x="0" y="458" width="4" height="217" fill="#7b2fd4" opacity="0.9"/>

  <text x="60" y="498" font-family="Arial, Helvetica, sans-serif" font-size="11.5" font-weight="700" fill="#9d4edd" letter-spacing="3">OUTDOOR EVENT · ASTRONOMY</text>
  <text x="60" y="550" font-family="Georgia, 'Times New Roman', serif" font-size="50" font-weight="700" fill="white">Skygazing Night</text>
  <text x="60" y="589" font-family="Georgia, 'Times New Roman', serif" font-size="26" font-weight="400" fill="#c4b5e8">at Nandi Hills</text>
  <text x="60" y="626" font-family="Arial, Helvetica, sans-serif" font-size="18" font-weight="600" fill="#c0a8e0">May 3, 2026  ·  7:00 PM – 1:00 AM</text>
  <text x="60" y="656" font-family="Arial, Helvetica, sans-serif" font-size="13.5" fill="#6a5890">Nandi Hills, Karnataka  ·  70 km from Bengaluru</text>
</svg>
